<svg xmlns="http://www.w3.org/2000/svg" id="svg3374" width="48.75" height="63.75" viewBox="0 0 48.75 63.75"><path d="M-.053 62.714c-.952-1.54 6.42-9.983 10.605-12.147 5.535-2.862 4.76-6.238-1.813-7.893-6.279-1.58-9.785-4.682-6.653-5.884C4.87 35.722 6.69 29.482 6.69 21.014c0-9.381 3.287-16.166 9.189-18.967 5.443-2.583 6.322-2.562 13.936.327 9.17 3.48 10.97 6.578 11.212 19.3.147 7.72.793 11.464 2.404 13.922 2.11 3.221 2.107 3.432-.082 5.044-1.256.926-4.113 2.03-6.347 2.453-5.242.994-5.5 4.85-.498 7.436 3.789 1.96 11.436 9.993 11.436 12.014 0 1.492-47.073 1.66-47.993.17zm42.707-4.276c-1.012-1.547-4.174-4.12-7.027-5.72-4.454-2.494-5.187-3.49-5.187-7.045 0-3.947.26-4.178 5.625-4.983 5.663-.849 6.972-2.592 4.103-5.461-.949-.95-1.428-4.671-1.273-9.891.136-4.603-.309-10.436-.989-12.963-1.079-4.006-2.105-4.945-8.028-7.35-7.918-3.213-12.687-2.676-17 1.916-2.364 2.516-3.028 5.011-3.723 13.998-.466 6.015-1.583 12.485-2.484 14.379-2 4.203-1.553 4.71 4.915 5.577 4.793.642 5.104.934 5.104 4.776 0 3.525-.776 4.546-5.602 7.374-3.081 1.806-6.195 4.39-6.92 5.744-1.285 2.402-.818 2.461 19.505 2.461h20.822l-1.84-2.813z" id="path3384" fill="#11b312"/></svg>