<svg xmlns="http://www.w3.org/2000/svg" id="svg3386" width="73.75" height="65" viewBox="0 0 73.75 65"><path d="M19.3 63.4c0-1.351-1.383-1.875-4.955-1.875-6.497 0-7.78-2.491-7.432-14.423.254-8.716.066-9.452-3.046-11.9C2.002 33.736.551 31.34.551 29.729c0-4.143 4.615-9.453 8.216-9.453 2.642 0 3.034-.572 3.034-4.437 0-2.44.853-6.087 1.896-8.103 3.214-6.217 7.388-7.46 25.042-7.46H54.55l4.25 4.25c3.601 3.602 4.25 5.128 4.25 10 0 5.185.285 5.75 2.907 5.75 3.805 0 8.343 4.924 8.343 9.053 0 1.995-1.216 4.223-3.125 5.724-2.89 2.274-3.125 3.247-3.125 12.966 0 11.988-.872 13.507-7.75 13.507-3.675 0-4.76.495-4.79 2.188-.038 2.083-.119 2.083-1.7 0-1.421-1.872-3.85-2.188-16.835-2.188-12.656 0-15.175.312-15.175 1.875 0 1.032-.563 1.875-1.25 1.875-.688 0-1.25-.843-1.25-1.875zm46.25-15.324c0-9.705-.292-11.132-2.576-12.559-1.757-1.096-2.454-2.646-2.188-4.862.414-3.457 3.982-6.58 5.632-4.93.543.544.007 1.536-1.19 2.206-2.713 1.518-2.843 5.571-.212 6.581 3.264 1.253 6.785-1.488 6.785-5.28 0-4.513-2.087-6.457-6.931-6.457-6.626 0-8.6 3.536-9.32 16.688L54.927 50.9h-35L19.3 38.608c-.523-10.286-1.021-12.581-3.052-14.063-7.388-5.39-17.5 2.5-11.234 8.766 2.58 2.58 5.177 2.491 6.573-.223 1.41-2.743.557-5.313-1.766-5.313-.974 0-1.771-.603-1.771-1.341 0-2.216 3.945-.731 5.902 2.221 1.676 2.528 1.559 3.023-1.413 5.995C9.61 37.58 9.3 38.815 9.3 47.624c0 5.354.376 10.11.834 10.568.459.458 13.115.833 28.125.833h27.292V48.076zm-12.5-2.8v-3.75H21.802v7.5h31.25v-3.75zm0-10.04c0-5.118 3.003-11.972 5.93-13.539 2.07-1.107 2.278-2.157 1.554-7.804C59.222 3.67 57.395 2.775 37.816 2.775H21.61L17.955 6.43c-4.996 4.996-5.164 12.667-.369 16.792 2.53 2.176 3.43 4.32 3.91 9.315l.623 6.49H53.05v-3.79z" id="path3396" fill="#1eba1e"/></svg>