<svg xmlns="http://www.w3.org/2000/svg" id="svg3398" width="56.25" height="60" viewBox="0 0 56.25 60"><path d="M.543 32.442L.879 4.629l4.063-.391c2.516-.243 4.062-1.076 4.062-2.188C9.004.831 10.41.254 13.38.254c3.056 0 4.375.566 4.375 1.875 0 2.75 20.647 2.75 21.702 0 .917-2.388 7.83-2.478 9.174-.12.55.965 2.405 1.95 4.124 2.187l3.125.433.337 27.813.336 27.812H.206l.337-27.812zm53.461 5.312v-20H2.754v40h51.25v-20zM9.87 51.953c-.476-.476-.866-6.921-.866-14.323 0-11.744.279-13.537 2.188-14.086 3.465-.995 33.431-.702 35.123.344 1.09.673 1.426 4.856 1.171 14.592l-.357 13.65-18.197.344c-10.008.19-18.586-.045-19.062-.521zm9.134-4.824c0-2.639-.583-3.125-3.75-3.125-3.166 0-3.75.486-3.75 3.125 0 2.64.584 3.125 3.75 3.125 3.167 0 3.75-.486 3.75-3.125zm8.75 0c0-2.639-.583-3.125-3.75-3.125-3.166 0-3.75.486-3.75 3.125 0 2.64.584 3.125 3.75 3.125 3.167 0 3.75-.486 3.75-3.125zm8.75 0c0-2.639-.583-3.125-3.75-3.125-3.166 0-3.75.486-3.75 3.125 0 2.64.584 3.125 3.75 3.125 3.167 0 3.75-.486 3.75-3.125zm8.75 0c0-2.5-.625-3.125-3.125-3.125s-3.125.625-3.125 3.125.625 3.125 3.125 3.125 3.125-.625 3.125-3.125zM18.38 37.754c0-2.48-.71-3.206-3.437-3.52-3.103-.357-3.438-.014-3.438 3.52 0 3.535.335 3.878 3.438 3.52 2.728-.313 3.437-1.04 3.437-3.52zm9.375 0c0-3.333-.416-3.75-3.75-3.75-3.333 0-3.75.417-3.75 3.75 0 3.334.417 3.75 3.75 3.75 3.334 0 3.75-.416 3.75-3.75zm8.75 0c0-3.333-.416-3.75-3.75-3.75-3.333 0-3.75.417-3.75 3.75 0 3.334.417 3.75 3.75 3.75 3.334 0 3.75-.416 3.75-3.75zm8.75 0c0-3.166-.486-3.75-3.125-3.75-2.639 0-3.125.584-3.125 3.75 0 3.167.486 3.75 3.125 3.75 2.64 0 3.125-.583 3.125-3.75zm-26.875-8.75c0-2.48-.71-3.206-3.437-3.52-3.103-.357-3.438-.014-3.438 3.52 0 3.535.335 3.878 3.438 3.52 2.728-.313 3.437-1.04 3.437-3.52zm9.146-.312c.355-3.089.006-3.438-3.438-3.438-3.182 0-3.833.495-3.833 2.917 0 3.684 1.1 4.785 4.324 4.323 1.738-.248 2.677-1.46 2.947-3.802zm8.98.312c0-3.333-.417-3.75-3.75-3.75-3.096 0-3.75.51-3.75 2.917 0 1.604.374 3.292.833 3.75.458.458 2.145.833 3.75.833 2.407 0 2.916-.655 2.916-3.75zm8.75 0c0-3.166-.487-3.75-3.126-3.75s-3.125.584-3.125 3.75c0 3.167.486 3.75 3.125 3.75 2.64 0 3.125-.583 3.125-3.75zm8.75-18.125c0-3.459-.496-4.375-2.367-4.375-1.301 0-2.69.844-3.086 1.875-.993 2.59-9.548 2.59-9.548 0 0-1.52-2.014-1.875-10.625-1.875-8.61 0-10.625.356-10.625 1.875 0 1.31-1.32 1.875-4.375 1.875-3.055 0-4.375-.565-4.375-1.875 0-1.166-1.18-1.875-3.125-1.875-2.738 0-3.125.542-3.125 4.375v4.375h51.25V10.88zm-38.75-5.625c0-1.666-.834-2.5-2.5-2.5-1.667 0-2.5.834-2.5 2.5 0 1.667.833 2.5 2.5 2.5 1.666 0 2.5-.833 2.5-2.5zm31.25 0c0-1.666-.834-2.5-2.5-2.5-1.667 0-2.5.834-2.5 2.5 0 1.667.833 2.5 2.5 2.5 1.666 0 2.5-.833 2.5-2.5z" id="path3408" fill="#22bc22"/></svg>