<svg xmlns="http://www.w3.org/2000/svg" id="svg3410" width="77.5" height="46.25" viewBox="0 0 77.5 46.25"><path d="M30.39 44.482c-8.084-2.03-14.073-5.822-22.066-13.97l-7.72-7.868 8.641-8.285C28.59-4.19 49.308-4.08 68.702 14.674l8.895 8.6-8.172 7.86c-4.494 4.323-10.838 9.113-14.097 10.645-6.808 3.2-18.09 4.423-24.938 2.703zm20.332-4.01c5.426-1.63 13.012-6.793 18.693-12.72l4.318-4.504-6.193-6.296C58.598 7.862 49.837 3.885 38.847 3.927 27.775 3.97 20.665 7.067 11.3 15.924L4.38 22.47l6.609 6.749C23.28 41.77 35.184 45.142 50.722 40.472zM33.638 39.41c-7.576-2.218-13.158-12.526-11.14-20.57.442-1.756 2.632-5.19 4.869-7.63 7.531-8.22 20.77-6.5 26.071 3.386 7.325 13.658-5.027 29.138-19.8 24.814zM47.26 34.56c7.017-5.52 7.547-15.61 1.143-21.745-4.81-4.608-10.898-5.39-16.193-2.08-12.423 7.768-7.747 26.283 6.638 26.283 3.365 0 6.424-.894 8.412-2.458zm-18.244-12.27c-2.316-3.748 6.551-12.178 9.6-9.129.852.852.201 1.668-1.994 2.503-1.792.681-4.051 2.75-5.02 4.6-1.027 1.96-2.105 2.804-2.586 2.026z" id="path3420" fill="#1dba1d"/></svg>