<svg xmlns="http://www.w3.org/2000/svg" id="svg3422" width="53.75" height="67.5" viewBox="0 0 53.75 67.5"><path d="M15.74 64.429c-3.973-2.018-7.786-5.23-10-8.426-3.124-4.508-3.579-6.301-3.579-14.112 0-7.756.477-9.67 3.58-14.358 3.961-5.986 3.97-5.937-3.174-17.896C.38 5.975.043 4.414 1.084 2.762 2.266.887 5.382.583 26.51.285c30.627-.433 31.05-.182 22.973 13.6-3.63 6.193-4.267 8.172-3.139 9.755 4.505 6.318 6.442 11.727 6.442 17.989 0 19.476-19.71 31.606-37.046 22.8zm21.566-1.82c7.431-3.375 12.035-9.986 12.722-18.266.724-8.733-.208-12.113-4.773-17.313l-3.745-4.265 5.013-8.695c2.757-4.782 5.013-9.342 5.013-10.133 0-1.034-6.84-1.437-24.375-1.437-18.032 0-24.375.388-24.375 1.49 0 .82 2.276 5.32 5.057 10.002l5.057 8.512-4.042 5.03c-7.165 8.917-6.083 23.92 2.27 31.473 6.639 6.004 17.575 7.508 26.178 3.602zm-17.645-4.374c-2.062-.916-5.029-3.054-6.592-4.75-3.392-3.68-5.767-11-4.108-12.66.7-.7 1.487.644 2.012 3.44 1.084 5.78 6.844 11.643 12.476 12.7 2.373.445 4.006 1.31 3.627 1.922-.932 1.508-2.955 1.33-7.415-.652zm-6.978-44.434c-1.909-3.066-3.196-6.02-2.86-6.563.708-1.146 33.421-1.363 34.555-.23.417.418-.7 3.372-2.484 6.566l-3.242 5.806-11.249-.002-11.25-.003-3.47-5.575zm26.78-1.125l2.303-3.926H12.698l1.46 2.813c2.62 5.047 3.3 5.314 13.208 5.176 9.602-.133 9.84-.214 12.098-4.063z" id="path3432" fill="#21bb21"/></svg>