<svg xmlns="http://www.w3.org/2000/svg" id="svg3434" width="30" height="67.5" viewBox="0 0 30 67.5"><path d="M7.627 65.681C.355 61.168-1.544 53.038 2.786 44.96c2.147-4.007 2.5-7.053 2.5-21.601 0-16.315.113-17.05 3.068-20.005 4.06-4.059 9.805-4.059 13.864 0 2.955 2.956 3.068 3.69 3.068 20.005 0 14.548.353 17.594 2.5 21.6 3.034 5.66 3.183 10.66.456 15.277-4.195 7.1-13.842 9.649-20.615 5.445zm16.38-4.8c3.77-3.768 4.252-11.619.938-15.281-1.187-1.312-2.159-4.17-2.159-6.35 0-2.69-.602-3.964-1.875-3.964-1.031 0-1.875-.562-1.875-1.25 0-.687.844-1.25 1.875-1.25 1.042 0 1.875-1.111 1.875-2.5s-.833-2.5-1.875-2.5c-1.031 0-1.875-.562-1.875-1.25 0-.687.844-1.25 1.875-1.25 1.042 0 1.875-1.111 1.875-2.5s-.833-2.5-1.875-2.5c-1.031 0-1.875-.562-1.875-1.25 0-.687.844-1.25 1.875-1.25 1.042 0 1.875-1.111 1.875-2.5s-.833-2.5-1.875-2.5c-1.031 0-1.875-.562-1.875-1.25 0-.687.844-1.25 1.875-1.25 2.597 0 2.343-2.032-.625-5-3.183-3.183-6.817-3.183-10 0-2.265 2.265-2.5 4.167-2.5 20.214 0 15.028-.327 18.076-2.16 20.1-1.256 1.388-2.158 4.393-2.158 7.186 0 11.058 12.605 16.025 20.54 8.095zM11 57.07c-2.686-2.685-2.465-6.38.536-8.95 1.852-1.586 2.5-3.687 2.5-8.113 0-3.284.563-5.972 1.25-5.972.688 0 1.25 2.688 1.25 5.972 0 4.426.648 6.527 2.5 8.113 4.396 3.764 1.94 10.915-3.75 10.915-1.277 0-3.205-.884-4.286-1.964zm6.838-2.473c1.329-1.6 1.246-2.3-.472-4.018-1.94-1.94-2.22-1.94-4.16 0-1.718 1.719-1.8 2.418-.472 4.018.884 1.066 2.033 1.938 2.552 1.938.52 0 1.668-.872 2.552-1.938z" id="path3444" fill="#11b711"/></svg>