<svg xmlns="http://www.w3.org/2000/svg" id="svg3368" width="55" height="63.75" viewBox="0 0 55 63.75"><path d="M14.288 59.375C12.1 55.315 11.502 55 5.966 55c-3.281 0-5.945-.422-5.919-.938.026-.515 2.225-4.59 4.885-9.055 2.661-4.465 4.485-8.684 4.054-9.375-.431-.691-.62-2.523-.42-4.07.2-1.549-.814-4.312-2.253-6.141-2.596-3.3-2.597-3.349-.183-5.937 1.338-1.435 2.616-4.573 2.84-6.974.3-3.225 1.058-4.469 2.905-4.763 1.375-.22 3.967-2.076 5.76-4.127C20.598.236 21.202.031 24.199 1.397c2.587 1.178 4.037 1.17 6.694-.041C34.02-.07 34.532.11 37.455 3.666c1.743 2.121 4.086 3.851 5.204 3.845 2.966-.016 4.846 2.826 4.002 6.052-.504 1.928.168 3.767 2.145 5.872l2.88 3.065-2.644 2.814c-4.107 4.372-3.456 12.21 1.73 20.81 2.322 3.85 4.223 7.423 4.225 7.939.001.515-2.547.937-5.664.937-5.152 0-5.902.398-8.249 4.375-1.42 2.406-2.947 4.369-3.395 4.361-.448-.007-2.754-3.382-5.124-7.5-2.37-4.117-4.656-7.486-5.078-7.486-.423 0-2.667 3.375-4.987 7.5-2.32 4.125-4.587 7.5-5.037 7.5-.45 0-1.88-1.969-3.175-4.375zM46.96 52.5c2.473 0 4.31-.427 4.08-.948-2.588-5.891-8.339-14.05-9.903-14.05-1.093-.001-2.627 1.404-3.41 3.123-1.525 3.345-3.928 3.909-7.81 1.831-3.367-1.802-3.113-.958 2.709 9.01l5.126 8.779 2.355-3.873c1.932-3.176 3.164-3.872 6.853-3.872zm-24.972-.313c4.457-8.044 4.512-9.164.426-8.69-2.422.28-3.565-.41-4.66-2.812-2.385-5.234-5.473-3.896-9.992 4.33L3.652 52.5H8.49c3.88 0 5.168.618 6.51 3.125.92 1.719 2.05 3.125 2.513 3.125.462 0 2.476-2.953 4.476-6.563zm3.022-12.193c1.615-.864 3.336-.805 5.524.192 2.813 1.282 3.47 1.077 5.721-1.785 1.4-1.779 3.798-3.412 5.331-3.63 2.323-.33 2.721-1.062 2.388-4.393-.292-2.923.27-4.416 2.09-5.552 2.477-1.548 2.478-1.57.03-4.683-1.368-1.738-2.296-4.546-2.09-6.322.29-2.51-.24-3.283-2.473-3.6-1.564-.221-3.746-1.78-4.849-3.463-1.675-2.557-2.677-2.935-6.087-2.295-2.246.421-5.27.13-6.72-.645-2.277-1.219-2.83-.987-4.054 1.699-.841 1.846-2.872 3.43-4.995 3.896-2.995.658-3.577 1.414-3.577 4.65 0 2.126-.93 4.894-2.069 6.151-1.927 2.13-1.92 2.45.103 4.685 1.291 1.427 2.003 3.834 1.756 5.938-.36 3.068.05 3.591 3.09 3.94 2.262.26 3.996 1.479 4.888 3.438 1.527 3.35 2.512 3.642 5.993 1.78zm-3.979-7.134C9.927 25.97 15.342 10 28.784 10c2.653 0 5.082 1.174 7.562 3.654C46.735 24.043 33.525 40.61 21.032 32.86zm14.28-4.252c3.143-3.785 2.764-9.395-.88-13.04-8.16-8.16-21.08 1.847-15.6 12.085 2.857 5.338 12.383 5.89 16.48.955z" id="path3378" fill="#1aba1a"/></svg>