<svg xmlns="http://www.w3.org/2000/svg" id="svg3362" width="73.75" height="58.75" viewBox="0 0 73.75 58.75"><path d="M8.501 57.113c0-3.056 11.568-10.47 18.343-11.757 4.841-.92 17.843 1.058 19.69 2.994.992 1.04-.45 1.136-5.533.368-11.312-1.709-15.797-1.046-23.176 3.426-3.753 2.275-6.824 4.58-6.824 5.122 0 .542-.562.986-1.25.986-.687 0-1.25-.512-1.25-1.139zm-4.088-5.866c-.355-.355.124-2.187 1.064-4.072 1.936-3.88.824-9.702-3.46-18.121-1.722-3.383-1.96-4.67-.798-4.313 2.52.777 7.282 11.011 7.282 15.651 0 5.177 1.713 5.279 3.806.226 1.36-3.282 1.275-5.173-.544-12.188-3.691-14.238-3.71-14.353-2.289-13.474 2.047 1.265 5.596 13.049 5.758 19.117.18 6.795 1.471 6.923 3.443.343 1.477-4.93.665-13.644-2.06-22.101-.563-1.75-.391-2.813.455-2.813 2.32 0 5.51 13.527 4.906 20.802-.637 7.674.827 8.673 3.464 2.363 2.049-4.903 2.317-15.1.593-22.539-1.616-6.97.662-8.582 2.497-1.767 1.505 5.589 1.132 22.574-.58 26.454-1.402 3.173 1.345 2.756 4.836-.734C36.4 30.466 38.5 21.156 38.5 8.741c0-6.69.408-9.134 1.42-8.509 2.481 1.534.607 25.347-2.47 31.377-1.426 2.796-2.288 5.389-1.915 5.761 1.469 1.469 7.583-1.883 9.57-5.246 2.578-4.365 5.852-17.837 5.877-24.184.01-2.579.58-4.688 1.268-4.688 2.843 0 .112 20.134-3.74 27.585-.865 1.672-2.725 4.306-4.134 5.853l-2.562 2.812 3.03-.028c6.268-.057 11.686-7.728 15.338-21.71 1.896-7.263 2.817-9.18 3.893-8.104.897.898-2.847 15.765-5.093 20.217-1.11 2.2-3.465 5.547-5.234 7.438l-3.216 3.437h5.138c6.93 0 12.377-4.594 14.246-12.018 1.548-6.147 3.599-8.45 3.557-3.993-.043 4.502-4.305 12.804-8.11 15.797-4.178 3.287-13.604 3.613-24.988.864-14.296-3.452-20.045-2.357-29.534 5.625-3.181 2.676-6.074 4.575-6.43 4.22z" id="path3372" fill="#1bba1b"/></svg>